<?xml version="1.0"?>
<svg xmlns="http://www.w3.org/2000/svg" id="Outline" viewBox="0 0 512 512" width="512" height="512"><path d="M489.621,104.166l-232-48a8.009,8.009,0,0,0-3.242,0l-232,48a8,8,0,0,0-3.761,13.754L48,144.631V249.013a32,32,0,0,0,0,61.974V336a8,8,0,0,0,16,0V310.987a32,32,0,0,0,0-61.974V159.176l40,36.364V232h.044a79.88,79.88,0,0,0,16.011,112H112a23.984,23.984,0,0,0-17.869,40,23.943,23.943,0,0,0,0,32A23.984,23.984,0,0,0,112,456H448a8,8,0,0,0,8-8V152c0-.032,0-.063,0-.094l37.385-33.986a8,8,0,0,0-3.761-13.754ZM72,280a16,16,0,1,1-16-16A16.019,16.019,0,0,1,72,280Zm32,120a8.009,8.009,0,0,1,8-8H224a8,8,0,0,1,0,16H112A8.009,8.009,0,0,1,104,400Zm16-202.118C137.954,192.461,197.317,176,256,176c46.58,0,93.183,10.224,120,17.348V216H216v.043a79.829,79.829,0,0,0-96,0ZM376,280H344V264h32Zm-48,96H296V328h32Zm-32-64V264h32v48Zm-49.61-48H280v16H248A80.049,80.049,0,0,0,246.39,264ZM328,232v16H296V232Zm48,0v16H344V232Zm-96,0v16H241.3a80,80,0,0,0-9.344-16Zm-33.61,64H280v16H241.3A79.256,79.256,0,0,0,246.39,296ZM280,328v16H215.945A80.712,80.712,0,0,0,232,327.945V328Zm0,32v16H246.624a23.944,23.944,0,0,0,0-16Zm0,48H246.624a23.944,23.944,0,0,0,0-16H280Zm-33.376,16H280v16H246.624a23.944,23.944,0,0,0,0-16ZM296,392h32v48H296Zm48,32h32v16H344Zm0-16V392h32v16Zm0-32V360h32v16Zm0-32V328h32v16Zm0-32V296h32v16Zm48-32h48v16H392Zm0-16V177.582a48.083,48.083,0,0,0,48,0V264Zm24-96c-13.01,0-24-7.327-24-16s10.99-16,24-16,24,7.327,24,16S429.01,168,416,168Zm-40,8.81C347.851,169.556,302.032,160,256,160c-57.04,0-113.21,14.5-136,21.167V157.881C137.965,152.458,197.326,136,256,136c46.58,0,93.183,10.224,120,17.348ZM104,280a64,64,0,1,1,64,64A64.072,64.072,0,0,1,104,280Zm8,80H224a8,8,0,0,1,0,16H112a8,8,0,0,1,0-16Zm0,80a8,8,0,0,1,0-16H224a8,8,0,0,1,0,16Zm280,0V312h48V440Zm58.258-304.5C443.247,126.218,430.515,120,416,120c-15.726,0-29.356,7.3-35.887,17.886C352.464,130.542,304.349,120,256,120c-72.465,0-143.54,23.414-146.53,24.41A8,8,0,0,0,104,152v21.915L41.009,116.65,256,72.169,470.991,116.65Z"/><path d="M184,272h-8V256h16a8,8,0,0,0,0-16H176a8,8,0,0,0-16,0h-8a24,24,0,0,0,0,48h8v16H144a8,8,0,0,0,0,16h16a8,8,0,0,0,16,0h8a24,24,0,0,0,0-48Zm-32,0a8,8,0,0,1,0-16h8v16Zm32,32h-8V288h8a8,8,0,0,1,0,16Z"/></svg>
