<?xml version="1.0" ?><svg height="48" id="svg8" version="1.1" viewBox="0 0 12.7 12.7" width="48" xmlns="http://www.w3.org/2000/svg" xmlns:cc="http://creativecommons.org/ns#" xmlns:dc="http://purl.org/dc/elements/1.1/" xmlns:rdf="http://www.w3.org/1999/02/22-rdf-syntax-ns#" xmlns:svg="http://www.w3.org/2000/svg"><g id="layer1" transform="translate(0,-284.29999)"><path d="m 4.2333335,289.23888 3e-7,-2.11664 c 0,-0.70557 0.7055555,-0.70557 0.7055555,-0.70557 h 5.6444447 c 0,0 0.705556,0 0.705556,0.70557 v 3.59832 c 0,0.70555 -0.705556,0.70555 -0.705556,0.70555 H 9.8777784 v 2.04611 l -2.1166668,-1.62278 v -2.61056 z" id="path4534" style="fill:#000000;fill-opacity:0.37647059;stroke:none;stroke-width:0.70555556px;stroke-linecap:butt;stroke-linejoin:miter;stroke-opacity:1"/><path d="m 2.1166668,288.53334 c 0,0 -0.7055557,-0.003 -0.7055557,0.70554 l 10e-8,3.52779 c 1e-7,0.70947 0.7055556,0.70555 0.7055556,0.70555 v -4.23334 h 5.6444445 v 4.23334 c 0,0 0.7055558,0.003 0.7055558,-0.70555 v -3.52779 c 0,-0.70946 -0.7055558,-0.70554 -0.7055558,-0.70554 z" id="rect5132" style="opacity:1;vector-effect:none;fill:#000000;fill-opacity:1;stroke:none;stroke-width:0.70752364px;stroke-linecap:butt;stroke-linejoin:miter;stroke-miterlimit:4;stroke-dasharray:none;stroke-dashoffset:0;stroke-opacity:1"/><path d="M 7.7611116,293.11944 H 5.6444448 l -2.4694446,1.81894 v -1.81894 H 2.1166668" id="path4532" style="opacity:1;vector-effect:none;fill:none;fill-opacity:0.37647059;stroke:#000000;stroke-width:0.7075237px;stroke-linecap:butt;stroke-linejoin:miter;stroke-miterlimit:4;stroke-dasharray:none;stroke-dashoffset:0;stroke-opacity:1"/></g></svg>